<mxfile host="app.diagrams.net" modified="2023-06-29T02:49:51.248Z" agent="Mozilla/5.0 (Windows NT 10.0; Win64; x64) AppleWebKit/537.36 (KHTML, like Gecko) Chrome/114.0.0.0 Safari/537.36" etag="peodf7qYPJu_MYW8b22V" version="21.5.1" type="github">
  <diagram name="PÃ¡gina-1" id="68-ri3t_62zrD-WDxQXu">
    <mxGraphModel dx="1674" dy="719" grid="0" gridSize="10" guides="1" tooltips="1" connect="1" arrows="1" fold="1" page="1" pageScale="1" pageWidth="827" pageHeight="1169" math="0" shadow="0">
      <root>
        <mxCell id="0" />
        <mxCell id="1" parent="0" />
        <mxCell id="cXM49ELqJlq6IrReiL05-63" value="" style="rounded=0;whiteSpace=wrap;html=1;fillColor=#dae8fc;strokeColor=#6c8ebf;" parent="1" vertex="1">
          <mxGeometry x="560" y="560" width="360" height="140" as="geometry" />
        </mxCell>
        <mxCell id="cXM49ELqJlq6IrReiL05-6" style="edgeStyle=orthogonalEdgeStyle;rounded=0;orthogonalLoop=1;jettySize=auto;html=1;" parent="1" source="cXM49ELqJlq6IrReiL05-1" target="cXM49ELqJlq6IrReiL05-2" edge="1">
          <mxGeometry relative="1" as="geometry" />
        </mxCell>
        <mxCell id="cXM49ELqJlq6IrReiL05-1" value="botons" style="rounded=0;whiteSpace=wrap;html=1;" parent="1" vertex="1">
          <mxGeometry x="200" y="160" width="120" height="40" as="geometry" />
        </mxCell>
        <mxCell id="cXM49ELqJlq6IrReiL05-22" style="edgeStyle=orthogonalEdgeStyle;rounded=0;orthogonalLoop=1;jettySize=auto;html=1;entryX=0;entryY=0.5;entryDx=0;entryDy=0;" parent="1" source="cXM49ELqJlq6IrReiL05-2" target="cXM49ELqJlq6IrReiL05-4" edge="1">
          <mxGeometry relative="1" as="geometry" />
        </mxCell>
        <mxCell id="cXM49ELqJlq6IrReiL05-2" value="AXI 4 lite" style="rounded=0;whiteSpace=wrap;html=1;rotation=-90;" parent="1" vertex="1">
          <mxGeometry x="240" y="160" width="280" height="40" as="geometry" />
        </mxCell>
        <mxCell id="cXM49ELqJlq6IrReiL05-4" value="micro" style="rounded=0;whiteSpace=wrap;html=1;" parent="1" vertex="1">
          <mxGeometry x="440" y="140" width="120" height="80" as="geometry" />
        </mxCell>
        <mxCell id="cXM49ELqJlq6IrReiL05-10" value="decoder" style="rounded=0;whiteSpace=wrap;html=1;" parent="1" vertex="1">
          <mxGeometry x="800" y="240" width="120" height="40" as="geometry" />
        </mxCell>
        <mxCell id="cXM49ELqJlq6IrReiL05-11" value="neural network" style="rounded=0;whiteSpace=wrap;html=1;" parent="1" vertex="1">
          <mxGeometry x="800" y="80" width="120" height="80" as="geometry" />
        </mxCell>
        <mxCell id="cXM49ELqJlq6IrReiL05-14" value="AXI 4 lite" style="rounded=0;whiteSpace=wrap;html=1;rotation=-90;" parent="1" vertex="1">
          <mxGeometry x="520" y="160" width="280" height="40" as="geometry" />
        </mxCell>
        <mxCell id="cXM49ELqJlq6IrReiL05-15" value="adress bus (3)" style="shape=flexArrow;endArrow=classic;html=1;rounded=0;" parent="1" edge="1">
          <mxGeometry width="50" height="50" relative="1" as="geometry">
            <mxPoint x="680" y="260" as="sourcePoint" />
            <mxPoint x="800" y="260" as="targetPoint" />
          </mxGeometry>
        </mxCell>
        <mxCell id="cXM49ELqJlq6IrReiL05-16" value="input (32)" style="shape=flexArrow;endArrow=classic;html=1;rounded=0;" parent="1" edge="1">
          <mxGeometry width="50" height="50" relative="1" as="geometry">
            <mxPoint x="680" y="140" as="sourcePoint" />
            <mxPoint x="800" y="140" as="targetPoint" />
          </mxGeometry>
        </mxCell>
        <mxCell id="cXM49ELqJlq6IrReiL05-17" value="address (7)" style="shape=flexArrow;endArrow=classic;html=1;rounded=0;exitX=0.5;exitY=0;exitDx=0;exitDy=0;" parent="1" edge="1">
          <mxGeometry width="50" height="50" relative="1" as="geometry">
            <mxPoint x="860" y="240" as="sourcePoint" />
            <mxPoint x="860" y="160" as="targetPoint" />
          </mxGeometry>
        </mxCell>
        <mxCell id="cXM49ELqJlq6IrReiL05-19" value="answer (32)" style="shape=flexArrow;endArrow=none;html=1;rounded=0;startArrow=block;endFill=0;" parent="1" edge="1">
          <mxGeometry width="50" height="50" relative="1" as="geometry">
            <mxPoint x="680" y="100" as="sourcePoint" />
            <mxPoint x="800" y="100" as="targetPoint" />
          </mxGeometry>
        </mxCell>
        <mxCell id="cXM49ELqJlq6IrReiL05-23" value="" style="endArrow=classic;html=1;rounded=0;" parent="1" edge="1">
          <mxGeometry width="50" height="50" relative="1" as="geometry">
            <mxPoint x="560" y="160" as="sourcePoint" />
            <mxPoint x="640" y="160" as="targetPoint" />
          </mxGeometry>
        </mxCell>
        <mxCell id="cXM49ELqJlq6IrReiL05-24" value="" style="endArrow=none;html=1;rounded=0;startArrow=classic;startFill=1;endFill=0;" parent="1" edge="1">
          <mxGeometry width="50" height="50" relative="1" as="geometry">
            <mxPoint x="560" y="200" as="sourcePoint" />
            <mxPoint x="640" y="200" as="targetPoint" />
          </mxGeometry>
        </mxCell>
        <mxCell id="cXM49ELqJlq6IrReiL05-25" value="" style="verticalLabelPosition=bottom;html=1;verticalAlign=top;align=center;strokeColor=none;fillColor=#00BEF2;shape=mxgraph.azure.code_file;pointerEvents=1;" parent="1" vertex="1">
          <mxGeometry x="550" y="80" width="30" height="30" as="geometry" />
        </mxCell>
        <mxCell id="cXM49ELqJlq6IrReiL05-50" style="rounded=0;orthogonalLoop=1;jettySize=auto;html=1;" parent="1" source="cXM49ELqJlq6IrReiL05-42" target="cXM49ELqJlq6IrReiL05-48" edge="1">
          <mxGeometry relative="1" as="geometry" />
        </mxCell>
        <mxCell id="cXM49ELqJlq6IrReiL05-42" value="*" style="ellipse;whiteSpace=wrap;html=1;aspect=fixed;" parent="1" vertex="1">
          <mxGeometry x="600" y="620" width="40" height="40" as="geometry" />
        </mxCell>
        <mxCell id="cXM49ELqJlq6IrReiL05-43" value="w" style="endArrow=classic;html=1;rounded=0;" parent="1" edge="1">
          <mxGeometry width="50" height="50" relative="1" as="geometry">
            <mxPoint x="520" y="630" as="sourcePoint" />
            <mxPoint x="600" y="630" as="targetPoint" />
          </mxGeometry>
        </mxCell>
        <mxCell id="cXM49ELqJlq6IrReiL05-44" value="d" style="endArrow=classic;html=1;rounded=0;" parent="1" edge="1">
          <mxGeometry width="50" height="50" relative="1" as="geometry">
            <mxPoint x="520" y="650" as="sourcePoint" />
            <mxPoint x="600" y="650" as="targetPoint" />
          </mxGeometry>
        </mxCell>
        <mxCell id="cXM49ELqJlq6IrReiL05-54" style="edgeStyle=orthogonalEdgeStyle;rounded=0;orthogonalLoop=1;jettySize=auto;html=1;" parent="1" source="cXM49ELqJlq6IrReiL05-48" target="cXM49ELqJlq6IrReiL05-115" edge="1">
          <mxGeometry relative="1" as="geometry" />
        </mxCell>
        <mxCell id="cXM49ELqJlq6IrReiL05-62" value="acumulator" style="edgeStyle=orthogonalEdgeStyle;rounded=0;orthogonalLoop=1;jettySize=auto;html=1;entryX=0.5;entryY=0;entryDx=0;entryDy=0;" parent="1" source="cXM49ELqJlq6IrReiL05-115" target="cXM49ELqJlq6IrReiL05-48" edge="1">
          <mxGeometry relative="1" as="geometry">
            <mxPoint x="640" y="550" as="targetPoint" />
            <Array as="points">
              <mxPoint x="780" y="580" />
              <mxPoint x="700" y="580" />
            </Array>
          </mxGeometry>
        </mxCell>
        <mxCell id="cXM49ELqJlq6IrReiL05-48" value="+" style="ellipse;whiteSpace=wrap;html=1;aspect=fixed;" parent="1" vertex="1">
          <mxGeometry x="680" y="620" width="40" height="40" as="geometry" />
        </mxCell>
        <mxCell id="cXM49ELqJlq6IrReiL05-53" value="ReLu" style="ellipse;whiteSpace=wrap;html=1;aspect=fixed;" parent="1" vertex="1">
          <mxGeometry x="840" y="620" width="40" height="40" as="geometry" />
        </mxCell>
        <mxCell id="cXM49ELqJlq6IrReiL05-55" value="out" style="endArrow=classic;html=1;rounded=0;" parent="1" edge="1">
          <mxGeometry width="50" height="50" relative="1" as="geometry">
            <mxPoint x="880" y="639.63" as="sourcePoint" />
            <mxPoint x="960" y="640" as="targetPoint" />
          </mxGeometry>
        </mxCell>
        <mxCell id="cXM49ELqJlq6IrReiL05-139" style="edgeStyle=orthogonalEdgeStyle;rounded=0;orthogonalLoop=1;jettySize=auto;html=1;entryX=0.463;entryY=0.036;entryDx=0;entryDy=0;entryPerimeter=0;" parent="1" source="cXM49ELqJlq6IrReiL05-61" target="cXM49ELqJlq6IrReiL05-110" edge="1">
          <mxGeometry relative="1" as="geometry" />
        </mxCell>
        <mxCell id="cXM49ELqJlq6IrReiL05-61" value="&lt;h1&gt;Datos de Micro&lt;/h1&gt;&lt;div&gt;&lt;span style=&quot;background-color: initial;&quot;&gt;int main(){&lt;/span&gt;&lt;/div&gt;&lt;div&gt;&lt;span style=&quot;background-color: initial;&quot;&gt;&lt;span style=&quot;white-space: pre;&quot;&gt;&#x9;&lt;/span&gt;for( i in ...){&lt;br&gt;&lt;/span&gt;&lt;/div&gt;&lt;div&gt;&lt;span style=&quot;white-space: pre;&quot;&gt;&#x9;&lt;/span&gt;&lt;span style=&quot;white-space: pre;&quot;&gt;&#x9;&lt;/span&gt;data[i]=data;&lt;/div&gt;&lt;div&gt;&lt;span style=&quot;white-space: pre;&quot;&gt;&#x9;&lt;/span&gt;&lt;span style=&quot;white-space: pre;&quot;&gt;&#x9;&lt;/span&gt;w[i]=w;&lt;br&gt;&lt;/div&gt;&lt;div&gt;&lt;span style=&quot;background-color: initial;&quot;&gt;&lt;span style=&quot;white-space: pre;&quot;&gt;&#x9;&lt;/span&gt;}&lt;/span&gt;&lt;/div&gt;&lt;div&gt;&lt;div style=&quot;border-color: var(--border-color);&quot;&gt;&lt;br&gt;&lt;/div&gt;&lt;/div&gt;&lt;div&gt;&lt;span style=&quot;background-color: initial;&quot;&gt;}&lt;/span&gt;&lt;/div&gt;&lt;div&gt;&lt;br&gt;&lt;/div&gt;" style="text;html=1;strokeColor=#666666;fillColor=#f5f5f5;spacing=5;spacingTop=-20;whiteSpace=wrap;overflow=hidden;rounded=0;fontColor=#333333;" parent="1" vertex="1">
          <mxGeometry x="10" y="830" width="190" height="120" as="geometry" />
        </mxCell>
        <mxCell id="cXM49ELqJlq6IrReiL05-91" value="input L" style="text;html=1;strokeColor=none;fillColor=none;align=center;verticalAlign=middle;whiteSpace=wrap;rounded=0;" parent="1" vertex="1">
          <mxGeometry x="410" y="780" width="60" height="30" as="geometry" />
        </mxCell>
        <mxCell id="cXM49ELqJlq6IrReiL05-92" value="3 - L&lt;span style=&quot;font-size: 10px;&quot;&gt;&lt;sup&gt;(1) &lt;/sup&gt;- 3&lt;/span&gt;" style="text;html=1;strokeColor=none;fillColor=none;align=center;verticalAlign=middle;whiteSpace=wrap;rounded=0;" parent="1" vertex="1">
          <mxGeometry x="535" y="770" width="60" height="30" as="geometry" />
        </mxCell>
        <mxCell id="cXM49ELqJlq6IrReiL05-93" value="3 - L&lt;sup&gt;(2) &lt;/sup&gt;- 2" style="text;html=1;strokeColor=none;fillColor=none;align=center;verticalAlign=middle;whiteSpace=wrap;rounded=0;" parent="1" vertex="1">
          <mxGeometry x="691" y="770" width="60" height="30" as="geometry" />
        </mxCell>
        <mxCell id="cXM49ELqJlq6IrReiL05-110" value="register" style="rounded=0;whiteSpace=wrap;html=1;rotation=-90;fillColor=#ffe6cc;strokeColor=#d79b00;" parent="1" vertex="1">
          <mxGeometry x="220" y="900" width="240" height="40" as="geometry" />
        </mxCell>
        <mxCell id="cXM49ELqJlq6IrReiL05-111" value="" style="shape=flexArrow;endArrow=classic;html=1;rounded=0;fillColor=#f8cecc;strokeColor=#b85450;entryX=0.147;entryY=1.008;entryDx=0;entryDy=0;entryPerimeter=0;" parent="1" target="cXM49ELqJlq6IrReiL05-63" edge="1">
          <mxGeometry width="50" height="50" relative="1" as="geometry">
            <mxPoint x="590" y="750" as="sourcePoint" />
            <mxPoint x="620" y="690" as="targetPoint" />
          </mxGeometry>
        </mxCell>
        <mxCell id="cXM49ELqJlq6IrReiL05-112" value="" style="shape=flexArrow;endArrow=classic;html=1;rounded=0;fillColor=#f8cecc;strokeColor=#b85450;entryX=0.456;entryY=1.016;entryDx=0;entryDy=0;entryPerimeter=0;" parent="1" target="cXM49ELqJlq6IrReiL05-63" edge="1">
          <mxGeometry width="50" height="50" relative="1" as="geometry">
            <mxPoint x="700" y="750" as="sourcePoint" />
            <mxPoint x="720" y="690" as="targetPoint" />
          </mxGeometry>
        </mxCell>
        <mxCell id="cXM49ELqJlq6IrReiL05-114" value="Micro&lt;span style=&quot;white-space: pre;&quot;&gt;&#x9;&lt;span style=&quot;white-space: pre;&quot;&gt;&#x9;&lt;/span&gt;&lt;span style=&quot;white-space: pre;&quot;&gt;&#x9;&lt;/span&gt;&lt;/span&gt;FPGA" style="text;html=1;strokeColor=none;fillColor=none;align=center;verticalAlign=middle;whiteSpace=wrap;rounded=0;" parent="1" vertex="1">
          <mxGeometry x="230" y="730" width="60" height="30" as="geometry" />
        </mxCell>
        <mxCell id="cXM49ELqJlq6IrReiL05-116" style="edgeStyle=orthogonalEdgeStyle;rounded=0;orthogonalLoop=1;jettySize=auto;html=1;" parent="1" source="cXM49ELqJlq6IrReiL05-115" target="cXM49ELqJlq6IrReiL05-53" edge="1">
          <mxGeometry relative="1" as="geometry" />
        </mxCell>
        <mxCell id="cXM49ELqJlq6IrReiL05-115" value="memory" style="rounded=0;whiteSpace=wrap;html=1;rotation=-90;" parent="1" vertex="1">
          <mxGeometry x="740" y="620" width="80" height="40" as="geometry" />
        </mxCell>
        <mxCell id="cXM49ELqJlq6IrReiL05-136" value="y&lt;sup&gt;(i)&lt;/sup&gt;&lt;sub&gt;j&lt;/sub&gt; = f(z&lt;sup style=&quot;border-color: var(--border-color);&quot;&gt;(i)&lt;/sup&gt;&lt;span style=&quot;border-color: var(--border-color);&quot;&gt;&lt;sub&gt;j&lt;/sub&gt;&lt;/span&gt;)" style="text;html=1;strokeColor=none;fillColor=none;align=center;verticalAlign=middle;whiteSpace=wrap;rounded=0;" parent="1" vertex="1">
          <mxGeometry x="715" y="1035" width="130" height="60" as="geometry" />
        </mxCell>
        <mxCell id="cXM49ELqJlq6IrReiL05-141" value="" style="shape=flexArrow;endArrow=classic;html=1;rounded=0;fillColor=#f8cecc;strokeColor=#b85450;" parent="1" edge="1">
          <mxGeometry width="50" height="50" relative="1" as="geometry">
            <mxPoint x="820" y="760" as="sourcePoint" />
            <mxPoint x="800" y="710" as="targetPoint" />
          </mxGeometry>
        </mxCell>
        <mxCell id="cXM49ELqJlq6IrReiL05-142" value="z&lt;sup&gt;(i)&lt;/sup&gt; = sum(y&lt;sup&gt;(i-1)&lt;/sup&gt;*w&lt;sup&gt;(i)&lt;/sup&gt;)" style="text;html=1;strokeColor=none;fillColor=none;align=center;verticalAlign=middle;whiteSpace=wrap;rounded=0;" parent="1" vertex="1">
          <mxGeometry x="560" y="1050" width="150" height="30" as="geometry" />
        </mxCell>
        <mxCell id="cXM49ELqJlq6IrReiL05-147" value="2 - L&lt;sup&gt;(3) &lt;/sup&gt;-1" style="text;html=1;strokeColor=none;fillColor=none;align=center;verticalAlign=middle;whiteSpace=wrap;rounded=0;" parent="1" vertex="1">
          <mxGeometry x="850" y="770" width="60" height="30" as="geometry" />
        </mxCell>
        <mxCell id="cXM49ELqJlq6IrReiL05-150" value="AXI 4 lite" style="rounded=0;whiteSpace=wrap;html=1;rotation=-90;fillColor=#d5e8d4;strokeColor=#82b366;" parent="1" vertex="1">
          <mxGeometry x="70" y="850" width="360" height="20" as="geometry" />
        </mxCell>
        <mxCell id="cXM49ELqJlq6IrReiL05-152" value="t" style="endArrow=classic;html=1;rounded=0;" parent="1" edge="1">
          <mxGeometry width="50" height="50" relative="1" as="geometry">
            <mxPoint x="480" y="1440" as="sourcePoint" />
            <mxPoint x="760" y="1440" as="targetPoint" />
          </mxGeometry>
        </mxCell>
        <mxCell id="cXM49ELqJlq6IrReiL05-154" value="y&lt;sup style=&quot;border-color: var(--border-color);&quot;&gt;(1)&lt;/sup&gt;&lt;sub style=&quot;border-color: var(--border-color);&quot;&gt;1&lt;/sub&gt;" style="ellipse;whiteSpace=wrap;html=1;aspect=fixed;fillColor=#e1d5e7;strokeColor=#9673a6;" parent="1" vertex="1">
          <mxGeometry x="440" y="1080" width="40" height="40" as="geometry" />
        </mxCell>
        <mxCell id="cXM49ELqJlq6IrReiL05-155" value="y&lt;sup style=&quot;border-color: var(--border-color);&quot;&gt;(1)&lt;/sup&gt;&lt;span style=&quot;border-color: var(--border-color);&quot;&gt;&lt;sub&gt;2&lt;/sub&gt;&lt;/span&gt;" style="ellipse;whiteSpace=wrap;html=1;aspect=fixed;fillColor=#e1d5e7;strokeColor=#9673a6;" parent="1" vertex="1">
          <mxGeometry x="440" y="1140" width="40" height="40" as="geometry" />
        </mxCell>
        <mxCell id="cXM49ELqJlq6IrReiL05-156" value="y&lt;sup style=&quot;border-color: var(--border-color);&quot;&gt;(1)&lt;/sup&gt;&lt;sub style=&quot;border-color: var(--border-color);&quot;&gt;3&lt;/sub&gt;" style="ellipse;whiteSpace=wrap;html=1;aspect=fixed;fillColor=#e1d5e7;strokeColor=#9673a6;" parent="1" vertex="1">
          <mxGeometry x="440" y="1200" width="40" height="40" as="geometry" />
        </mxCell>
        <mxCell id="cXM49ELqJlq6IrReiL05-157" value="y&lt;sup style=&quot;border-color: var(--border-color);&quot;&gt;(2)&lt;/sup&gt;&lt;sub style=&quot;border-color: var(--border-color);&quot;&gt;1&lt;/sub&gt;" style="ellipse;whiteSpace=wrap;html=1;aspect=fixed;fillColor=#d5e8d4;strokeColor=#82b366;" parent="1" vertex="1">
          <mxGeometry x="440" y="1260" width="40" height="40" as="geometry" />
        </mxCell>
        <mxCell id="cXM49ELqJlq6IrReiL05-158" value="y&lt;sup style=&quot;border-color: var(--border-color);&quot;&gt;(1)&lt;/sup&gt;&lt;sub style=&quot;border-color: var(--border-color);&quot;&gt;2&lt;/sub&gt;" style="ellipse;whiteSpace=wrap;html=1;aspect=fixed;fillColor=#d5e8d4;strokeColor=#82b366;" parent="1" vertex="1">
          <mxGeometry x="440" y="1320" width="40" height="40" as="geometry" />
        </mxCell>
        <mxCell id="cXM49ELqJlq6IrReiL05-159" value="y&lt;sup style=&quot;border-color: var(--border-color);&quot;&gt;(3)&lt;/sup&gt;&lt;sub style=&quot;border-color: var(--border-color);&quot;&gt;1&lt;/sub&gt;" style="ellipse;whiteSpace=wrap;html=1;aspect=fixed;fillColor=#ffe6cc;strokeColor=#d79b00;" parent="1" vertex="1">
          <mxGeometry x="440" y="1380" width="40" height="40" as="geometry" />
        </mxCell>
        <mxCell id="cXM49ELqJlq6IrReiL05-160" value="" style="endArrow=none;html=1;rounded=0;" parent="1" edge="1">
          <mxGeometry width="50" height="50" relative="1" as="geometry">
            <mxPoint x="480" y="1440" as="sourcePoint" />
            <mxPoint x="480" y="1050" as="targetPoint" />
          </mxGeometry>
        </mxCell>
        <mxCell id="cXM49ELqJlq6IrReiL05-161" value="" style="rounded=0;whiteSpace=wrap;html=1;fillColor=#dae8fc;strokeColor=#6c8ebf;" parent="1" vertex="1">
          <mxGeometry x="480" y="1090" width="80" height="20" as="geometry" />
        </mxCell>
        <mxCell id="cXM49ELqJlq6IrReiL05-171" style="edgeStyle=orthogonalEdgeStyle;rounded=0;orthogonalLoop=1;jettySize=auto;html=1;curved=1;entryX=0;entryY=0.5;entryDx=0;entryDy=0;exitX=1;exitY=0.5;exitDx=0;exitDy=0;" parent="1" source="cXM49ELqJlq6IrReiL05-162" target="cXM49ELqJlq6IrReiL05-164" edge="1">
          <mxGeometry relative="1" as="geometry">
            <Array as="points">
              <mxPoint x="601" y="1160" />
              <mxPoint x="601" y="1244" />
              <mxPoint x="532" y="1244" />
              <mxPoint x="532" y="1280" />
            </Array>
          </mxGeometry>
        </mxCell>
        <mxCell id="cXM49ELqJlq6IrReiL05-162" value="" style="rounded=0;whiteSpace=wrap;html=1;fillColor=#dae8fc;strokeColor=#6c8ebf;" parent="1" vertex="1">
          <mxGeometry x="480" y="1150" width="80" height="20" as="geometry" />
        </mxCell>
        <mxCell id="cXM49ELqJlq6IrReiL05-172" style="edgeStyle=orthogonalEdgeStyle;rounded=0;orthogonalLoop=1;jettySize=auto;html=1;entryX=0;entryY=0.5;entryDx=0;entryDy=0;curved=1;exitX=1;exitY=0.5;exitDx=0;exitDy=0;" parent="1" source="cXM49ELqJlq6IrReiL05-163" target="cXM49ELqJlq6IrReiL05-164" edge="1">
          <mxGeometry relative="1" as="geometry">
            <Array as="points">
              <mxPoint x="580" y="1220" />
              <mxPoint x="580" y="1240" />
              <mxPoint x="521" y="1240" />
              <mxPoint x="521" y="1280" />
            </Array>
          </mxGeometry>
        </mxCell>
        <mxCell id="cXM49ELqJlq6IrReiL05-163" value="" style="rounded=0;whiteSpace=wrap;html=1;fillColor=#dae8fc;strokeColor=#6c8ebf;" parent="1" vertex="1">
          <mxGeometry x="480" y="1210" width="80" height="20" as="geometry" />
        </mxCell>
        <mxCell id="cXM49ELqJlq6IrReiL05-173" style="edgeStyle=orthogonalEdgeStyle;rounded=0;orthogonalLoop=1;jettySize=auto;html=1;curved=1;exitX=1;exitY=0.5;exitDx=0;exitDy=0;" parent="1" source="cXM49ELqJlq6IrReiL05-164" target="cXM49ELqJlq6IrReiL05-166" edge="1">
          <mxGeometry relative="1" as="geometry">
            <Array as="points">
              <mxPoint x="678" y="1280" />
              <mxPoint x="678" y="1367" />
              <mxPoint x="625" y="1367" />
              <mxPoint x="625" y="1400" />
            </Array>
            <mxPoint x="631" y="1411" as="targetPoint" />
          </mxGeometry>
        </mxCell>
        <mxCell id="cXM49ELqJlq6IrReiL05-164" value="" style="rounded=0;whiteSpace=wrap;html=1;fillColor=#dae8fc;strokeColor=#6c8ebf;" parent="1" vertex="1">
          <mxGeometry x="560" y="1270" width="80" height="20" as="geometry" />
        </mxCell>
        <mxCell id="cXM49ELqJlq6IrReiL05-174" style="edgeStyle=orthogonalEdgeStyle;rounded=0;orthogonalLoop=1;jettySize=auto;html=1;curved=1;exitX=1;exitY=0.5;exitDx=0;exitDy=0;" parent="1" source="cXM49ELqJlq6IrReiL05-165" target="cXM49ELqJlq6IrReiL05-166" edge="1">
          <mxGeometry relative="1" as="geometry">
            <mxPoint x="615" y="1417" as="targetPoint" />
            <Array as="points">
              <mxPoint x="660" y="1340" />
              <mxPoint x="660" y="1357" />
              <mxPoint x="620" y="1357" />
              <mxPoint x="620" y="1395" />
            </Array>
          </mxGeometry>
        </mxCell>
        <mxCell id="cXM49ELqJlq6IrReiL05-165" value="" style="rounded=0;whiteSpace=wrap;html=1;fillColor=#dae8fc;strokeColor=#6c8ebf;" parent="1" vertex="1">
          <mxGeometry x="560" y="1330" width="80" height="20" as="geometry" />
        </mxCell>
        <mxCell id="cXM49ELqJlq6IrReiL05-166" value="" style="rounded=0;whiteSpace=wrap;html=1;fillColor=#dae8fc;strokeColor=#6c8ebf;" parent="1" vertex="1">
          <mxGeometry x="640" y="1390" width="80" height="20" as="geometry" />
        </mxCell>
        <mxCell id="cXM49ELqJlq6IrReiL05-167" value="layer 1" style="endArrow=classic;startArrow=classic;html=1;rounded=0;" parent="1" edge="1">
          <mxGeometry width="50" height="50" relative="1" as="geometry">
            <mxPoint x="420" y="1250" as="sourcePoint" />
            <mxPoint x="420" y="1060" as="targetPoint" />
          </mxGeometry>
        </mxCell>
        <mxCell id="cXM49ELqJlq6IrReiL05-168" value="layer 2" style="endArrow=classic;startArrow=classic;html=1;rounded=0;" parent="1" edge="1">
          <mxGeometry width="50" height="50" relative="1" as="geometry">
            <mxPoint x="420" y="1370" as="sourcePoint" />
            <mxPoint x="420" y="1250" as="targetPoint" />
          </mxGeometry>
        </mxCell>
        <mxCell id="cXM49ELqJlq6IrReiL05-169" value="layer 3" style="endArrow=classic;startArrow=classic;html=1;rounded=0;" parent="1" edge="1">
          <mxGeometry width="50" height="50" relative="1" as="geometry">
            <mxPoint x="420" y="1440" as="sourcePoint" />
            <mxPoint x="420" y="1370" as="targetPoint" />
          </mxGeometry>
        </mxCell>
        <mxCell id="cXM49ELqJlq6IrReiL05-170" value="" style="curved=1;endArrow=classic;html=1;rounded=0;exitX=1;exitY=0.5;exitDx=0;exitDy=0;entryX=0;entryY=0.5;entryDx=0;entryDy=0;" parent="1" source="cXM49ELqJlq6IrReiL05-161" target="cXM49ELqJlq6IrReiL05-164" edge="1">
          <mxGeometry width="50" height="50" relative="1" as="geometry">
            <mxPoint x="610" y="1280" as="sourcePoint" />
            <mxPoint x="660" y="1230" as="targetPoint" />
            <Array as="points">
              <mxPoint x="628" y="1146" />
              <mxPoint x="623" y="1231" />
              <mxPoint x="536" y="1263" />
            </Array>
          </mxGeometry>
        </mxCell>
        <mxCell id="VyrQGjFrnwsROVNn3HrQ-4" value="fixed floating mult and add" style="text;html=1;strokeColor=none;fillColor=none;align=center;verticalAlign=middle;whiteSpace=wrap;rounded=0;" parent="1" vertex="1">
          <mxGeometry x="550" y="530" width="230" height="30" as="geometry" />
        </mxCell>
        <mxCell id="VyrQGjFrnwsROVNn3HrQ-6" value="f" style="ellipse;whiteSpace=wrap;html=1;aspect=fixed;fillColor=#dae8fc;strokeColor=#6c8ebf;" parent="1" vertex="1">
          <mxGeometry x="540" y="820" width="40" height="40" as="geometry" />
        </mxCell>
        <mxCell id="VyrQGjFrnwsROVNn3HrQ-10" style="rounded=0;orthogonalLoop=1;jettySize=auto;html=1;endArrow=none;endFill=0;" parent="1" source="VyrQGjFrnwsROVNn3HrQ-7" target="VyrQGjFrnwsROVNn3HrQ-6" edge="1">
          <mxGeometry relative="1" as="geometry">
            <mxPoint x="520" y="827.5" as="targetPoint" />
            <mxPoint x="510" y="852.4999999999998" as="sourcePoint" />
          </mxGeometry>
        </mxCell>
        <mxCell id="VyrQGjFrnwsROVNn3HrQ-7" value="&lt;span style=&quot;color: rgb(0, 0, 0); font-family: Helvetica; font-size: 12px; font-style: normal; font-variant-ligatures: normal; font-variant-caps: normal; font-weight: 400; letter-spacing: normal; orphans: 2; text-align: center; text-indent: 0px; text-transform: none; widows: 2; word-spacing: 0px; -webkit-text-stroke-width: 0px; background-color: rgb(251, 251, 251); text-decoration-thickness: initial; text-decoration-style: initial; text-decoration-color: initial; float: none; display: inline !important;&quot;&gt;z&lt;/span&gt;&lt;sup style=&quot;border-color: var(--border-color); color: rgb(0, 0, 0); font-family: Helvetica; font-style: normal; font-variant-ligatures: normal; font-variant-caps: normal; font-weight: 400; letter-spacing: normal; orphans: 2; text-align: center; text-indent: 0px; text-transform: none; widows: 2; word-spacing: 0px; -webkit-text-stroke-width: 0px; background-color: rgb(251, 251, 251); text-decoration-thickness: initial; text-decoration-style: initial; text-decoration-color: initial;&quot;&gt;(1)&lt;/sup&gt;&lt;sub style=&quot;border-color: var(--border-color); color: rgb(0, 0, 0); font-family: Helvetica; font-style: normal; font-variant-ligatures: normal; font-variant-caps: normal; font-weight: 400; letter-spacing: normal; orphans: 2; text-align: center; text-indent: 0px; text-transform: none; widows: 2; word-spacing: 0px; -webkit-text-stroke-width: 0px; background-color: rgb(251, 251, 251); text-decoration-thickness: initial; text-decoration-style: initial; text-decoration-color: initial;&quot;&gt;1&lt;br&gt;&lt;br&gt;&lt;/sub&gt;" style="ellipse;whiteSpace=wrap;html=1;aspect=fixed;" parent="1" vertex="1">
          <mxGeometry x="520" y="835" width="10" height="10" as="geometry" />
        </mxCell>
        <mxCell id="VyrQGjFrnwsROVNn3HrQ-33" style="rounded=0;orthogonalLoop=1;jettySize=auto;html=1;endArrow=none;endFill=0;" parent="1" source="VyrQGjFrnwsROVNn3HrQ-9" target="VyrQGjFrnwsROVNn3HrQ-24" edge="1">
          <mxGeometry relative="1" as="geometry" />
        </mxCell>
        <mxCell id="VyrQGjFrnwsROVNn3HrQ-34" style="rounded=0;orthogonalLoop=1;jettySize=auto;html=1;endArrow=none;endFill=0;" parent="1" source="VyrQGjFrnwsROVNn3HrQ-9" target="VyrQGjFrnwsROVNn3HrQ-29" edge="1">
          <mxGeometry relative="1" as="geometry" />
        </mxCell>
        <mxCell id="VyrQGjFrnwsROVNn3HrQ-9" value="&lt;span style=&quot;color: rgb(0, 0, 0); font-family: Helvetica; font-size: 12px; font-style: normal; font-variant-ligatures: normal; font-variant-caps: normal; font-weight: 400; letter-spacing: normal; orphans: 2; text-align: center; text-indent: 0px; text-transform: none; widows: 2; word-spacing: 0px; -webkit-text-stroke-width: 0px; background-color: rgb(251, 251, 251); text-decoration-thickness: initial; text-decoration-style: initial; text-decoration-color: initial; float: none; display: inline !important;&quot;&gt;y&lt;/span&gt;&lt;sup style=&quot;border-color: var(--border-color); color: rgb(0, 0, 0); font-family: Helvetica; font-style: normal; font-variant-ligatures: normal; font-variant-caps: normal; font-weight: 400; letter-spacing: normal; orphans: 2; text-align: center; text-indent: 0px; text-transform: none; widows: 2; word-spacing: 0px; -webkit-text-stroke-width: 0px; background-color: rgb(251, 251, 251); text-decoration-thickness: initial; text-decoration-style: initial; text-decoration-color: initial;&quot;&gt;(1)&lt;/sup&gt;&lt;sub style=&quot;border-color: var(--border-color); color: rgb(0, 0, 0); font-family: Helvetica; font-style: normal; font-variant-ligatures: normal; font-variant-caps: normal; font-weight: 400; letter-spacing: normal; orphans: 2; text-align: center; text-indent: 0px; text-transform: none; widows: 2; word-spacing: 0px; -webkit-text-stroke-width: 0px; background-color: rgb(251, 251, 251); text-decoration-thickness: initial; text-decoration-style: initial; text-decoration-color: initial;&quot;&gt;1&lt;/sub&gt;&lt;br&gt;&lt;br&gt;" style="ellipse;whiteSpace=wrap;html=1;aspect=fixed;" parent="1" vertex="1">
          <mxGeometry x="590" y="835" width="10" height="10" as="geometry" />
        </mxCell>
        <mxCell id="VyrQGjFrnwsROVNn3HrQ-11" value="" style="endArrow=none;html=1;rounded=0;" parent="1" source="VyrQGjFrnwsROVNn3HrQ-6" target="VyrQGjFrnwsROVNn3HrQ-9" edge="1">
          <mxGeometry width="50" height="50" relative="1" as="geometry">
            <mxPoint x="500" y="870" as="sourcePoint" />
            <mxPoint x="550" y="820" as="targetPoint" />
          </mxGeometry>
        </mxCell>
        <mxCell id="VyrQGjFrnwsROVNn3HrQ-12" value="f" style="ellipse;whiteSpace=wrap;html=1;aspect=fixed;fillColor=#dae8fc;strokeColor=#6c8ebf;" parent="1" vertex="1">
          <mxGeometry x="540" y="900" width="40" height="40" as="geometry" />
        </mxCell>
        <mxCell id="VyrQGjFrnwsROVNn3HrQ-13" style="rounded=0;orthogonalLoop=1;jettySize=auto;html=1;endArrow=none;endFill=0;" parent="1" source="VyrQGjFrnwsROVNn3HrQ-14" target="VyrQGjFrnwsROVNn3HrQ-12" edge="1">
          <mxGeometry relative="1" as="geometry">
            <mxPoint x="520" y="907.5" as="targetPoint" />
            <mxPoint x="510" y="932.4999999999998" as="sourcePoint" />
          </mxGeometry>
        </mxCell>
        <mxCell id="VyrQGjFrnwsROVNn3HrQ-14" value="&lt;span style=&quot;color: rgb(0, 0, 0); font-family: Helvetica; font-size: 12px; font-style: normal; font-variant-ligatures: normal; font-variant-caps: normal; font-weight: 400; letter-spacing: normal; orphans: 2; text-align: center; text-indent: 0px; text-transform: none; widows: 2; word-spacing: 0px; -webkit-text-stroke-width: 0px; background-color: rgb(251, 251, 251); text-decoration-thickness: initial; text-decoration-style: initial; text-decoration-color: initial; float: none; display: inline !important;&quot;&gt;z&lt;/span&gt;&lt;sup style=&quot;border-color: var(--border-color); color: rgb(0, 0, 0); font-family: Helvetica; font-style: normal; font-variant-ligatures: normal; font-variant-caps: normal; font-weight: 400; letter-spacing: normal; orphans: 2; text-align: center; text-indent: 0px; text-transform: none; widows: 2; word-spacing: 0px; -webkit-text-stroke-width: 0px; background-color: rgb(251, 251, 251); text-decoration-thickness: initial; text-decoration-style: initial; text-decoration-color: initial;&quot;&gt;(1)&lt;/sup&gt;&lt;sub style=&quot;border-color: var(--border-color); color: rgb(0, 0, 0); font-family: Helvetica; font-style: normal; font-variant-ligatures: normal; font-variant-caps: normal; font-weight: 400; letter-spacing: normal; orphans: 2; text-align: center; text-indent: 0px; text-transform: none; widows: 2; word-spacing: 0px; -webkit-text-stroke-width: 0px; background-color: rgb(251, 251, 251); text-decoration-thickness: initial; text-decoration-style: initial; text-decoration-color: initial;&quot;&gt;2&lt;br&gt;&lt;/sub&gt;&lt;br&gt;" style="ellipse;whiteSpace=wrap;html=1;aspect=fixed;" parent="1" vertex="1">
          <mxGeometry x="520" y="915" width="10" height="10" as="geometry" />
        </mxCell>
        <mxCell id="VyrQGjFrnwsROVNn3HrQ-35" style="rounded=0;orthogonalLoop=1;jettySize=auto;html=1;endArrow=none;endFill=0;" parent="1" source="VyrQGjFrnwsROVNn3HrQ-15" target="VyrQGjFrnwsROVNn3HrQ-24" edge="1">
          <mxGeometry relative="1" as="geometry" />
        </mxCell>
        <mxCell id="VyrQGjFrnwsROVNn3HrQ-36" style="rounded=0;orthogonalLoop=1;jettySize=auto;html=1;endArrow=none;endFill=0;" parent="1" source="VyrQGjFrnwsROVNn3HrQ-15" target="VyrQGjFrnwsROVNn3HrQ-29" edge="1">
          <mxGeometry relative="1" as="geometry" />
        </mxCell>
        <mxCell id="VyrQGjFrnwsROVNn3HrQ-15" value="&lt;span style=&quot;color: rgb(0, 0, 0); font-family: Helvetica; font-size: 12px; font-style: normal; font-variant-ligatures: normal; font-variant-caps: normal; font-weight: 400; letter-spacing: normal; orphans: 2; text-align: center; text-indent: 0px; text-transform: none; widows: 2; word-spacing: 0px; -webkit-text-stroke-width: 0px; background-color: rgb(251, 251, 251); text-decoration-thickness: initial; text-decoration-style: initial; text-decoration-color: initial; float: none; display: inline !important;&quot;&gt;y&lt;/span&gt;&lt;sup style=&quot;border-color: var(--border-color); color: rgb(0, 0, 0); font-family: Helvetica; font-style: normal; font-variant-ligatures: normal; font-variant-caps: normal; font-weight: 400; letter-spacing: normal; orphans: 2; text-align: center; text-indent: 0px; text-transform: none; widows: 2; word-spacing: 0px; -webkit-text-stroke-width: 0px; background-color: rgb(251, 251, 251); text-decoration-thickness: initial; text-decoration-style: initial; text-decoration-color: initial;&quot;&gt;(1)&lt;/sup&gt;&lt;sub style=&quot;border-color: var(--border-color); color: rgb(0, 0, 0); font-family: Helvetica; font-style: normal; font-variant-ligatures: normal; font-variant-caps: normal; font-weight: 400; letter-spacing: normal; orphans: 2; text-align: center; text-indent: 0px; text-transform: none; widows: 2; word-spacing: 0px; -webkit-text-stroke-width: 0px; background-color: rgb(251, 251, 251); text-decoration-thickness: initial; text-decoration-style: initial; text-decoration-color: initial;&quot;&gt;2&lt;/sub&gt;&lt;br&gt;&lt;br&gt;" style="ellipse;whiteSpace=wrap;html=1;aspect=fixed;" parent="1" vertex="1">
          <mxGeometry x="590" y="915" width="10" height="10" as="geometry" />
        </mxCell>
        <mxCell id="VyrQGjFrnwsROVNn3HrQ-16" value="" style="endArrow=none;html=1;rounded=0;" parent="1" source="VyrQGjFrnwsROVNn3HrQ-12" target="VyrQGjFrnwsROVNn3HrQ-15" edge="1">
          <mxGeometry width="50" height="50" relative="1" as="geometry">
            <mxPoint x="500" y="950" as="sourcePoint" />
            <mxPoint x="550" y="900" as="targetPoint" />
          </mxGeometry>
        </mxCell>
        <mxCell id="VyrQGjFrnwsROVNn3HrQ-17" value="f" style="ellipse;whiteSpace=wrap;html=1;aspect=fixed;fillColor=#dae8fc;strokeColor=#6c8ebf;" parent="1" vertex="1">
          <mxGeometry x="540" y="980" width="40" height="40" as="geometry" />
        </mxCell>
        <mxCell id="VyrQGjFrnwsROVNn3HrQ-18" style="rounded=0;orthogonalLoop=1;jettySize=auto;html=1;endArrow=none;endFill=0;" parent="1" source="VyrQGjFrnwsROVNn3HrQ-19" target="VyrQGjFrnwsROVNn3HrQ-17" edge="1">
          <mxGeometry relative="1" as="geometry">
            <mxPoint x="520" y="987.5" as="targetPoint" />
            <mxPoint x="510" y="1012.4999999999998" as="sourcePoint" />
          </mxGeometry>
        </mxCell>
        <mxCell id="VyrQGjFrnwsROVNn3HrQ-19" value="&lt;span style=&quot;color: rgb(0, 0, 0); font-family: Helvetica; font-size: 12px; font-style: normal; font-variant-ligatures: normal; font-variant-caps: normal; font-weight: 400; letter-spacing: normal; orphans: 2; text-align: center; text-indent: 0px; text-transform: none; widows: 2; word-spacing: 0px; -webkit-text-stroke-width: 0px; background-color: rgb(251, 251, 251); text-decoration-thickness: initial; text-decoration-style: initial; text-decoration-color: initial; float: none; display: inline !important;&quot;&gt;z&lt;/span&gt;&lt;sup style=&quot;border-color: var(--border-color); color: rgb(0, 0, 0); font-family: Helvetica; font-style: normal; font-variant-ligatures: normal; font-variant-caps: normal; font-weight: 400; letter-spacing: normal; orphans: 2; text-align: center; text-indent: 0px; text-transform: none; widows: 2; word-spacing: 0px; -webkit-text-stroke-width: 0px; background-color: rgb(251, 251, 251); text-decoration-thickness: initial; text-decoration-style: initial; text-decoration-color: initial;&quot;&gt;(1)&lt;/sup&gt;&lt;span style=&quot;border-color: var(--border-color); color: rgb(0, 0, 0); font-family: Helvetica; font-style: normal; font-variant-ligatures: normal; font-variant-caps: normal; font-weight: 400; letter-spacing: normal; orphans: 2; text-align: center; text-indent: 0px; text-transform: none; widows: 2; word-spacing: 0px; -webkit-text-stroke-width: 0px; background-color: rgb(251, 251, 251); text-decoration-thickness: initial; text-decoration-style: initial; text-decoration-color: initial;&quot;&gt;&lt;sub&gt;3&lt;/sub&gt;&lt;/span&gt;&lt;br&gt;&lt;br&gt;" style="ellipse;whiteSpace=wrap;html=1;aspect=fixed;" parent="1" vertex="1">
          <mxGeometry x="520" y="995" width="10" height="10" as="geometry" />
        </mxCell>
        <mxCell id="VyrQGjFrnwsROVNn3HrQ-37" style="rounded=0;orthogonalLoop=1;jettySize=auto;html=1;endArrow=none;endFill=0;" parent="1" source="VyrQGjFrnwsROVNn3HrQ-20" target="VyrQGjFrnwsROVNn3HrQ-29" edge="1">
          <mxGeometry relative="1" as="geometry" />
        </mxCell>
        <mxCell id="VyrQGjFrnwsROVNn3HrQ-71" style="rounded=0;orthogonalLoop=1;jettySize=auto;html=1;endArrow=none;endFill=0;" parent="1" source="VyrQGjFrnwsROVNn3HrQ-20" target="VyrQGjFrnwsROVNn3HrQ-24" edge="1">
          <mxGeometry relative="1" as="geometry" />
        </mxCell>
        <mxCell id="VyrQGjFrnwsROVNn3HrQ-20" value="&lt;span style=&quot;color: rgb(0, 0, 0); font-family: Helvetica; font-size: 12px; font-style: normal; font-variant-ligatures: normal; font-variant-caps: normal; font-weight: 400; letter-spacing: normal; orphans: 2; text-align: center; text-indent: 0px; text-transform: none; widows: 2; word-spacing: 0px; -webkit-text-stroke-width: 0px; background-color: rgb(251, 251, 251); text-decoration-thickness: initial; text-decoration-style: initial; text-decoration-color: initial; float: none; display: inline !important;&quot;&gt;y&lt;/span&gt;&lt;sup style=&quot;border-color: var(--border-color); color: rgb(0, 0, 0); font-family: Helvetica; font-style: normal; font-variant-ligatures: normal; font-variant-caps: normal; font-weight: 400; letter-spacing: normal; orphans: 2; text-align: center; text-indent: 0px; text-transform: none; widows: 2; word-spacing: 0px; -webkit-text-stroke-width: 0px; background-color: rgb(251, 251, 251); text-decoration-thickness: initial; text-decoration-style: initial; text-decoration-color: initial;&quot;&gt;(1)&lt;/sup&gt;&lt;span style=&quot;border-color: var(--border-color); color: rgb(0, 0, 0); font-family: Helvetica; font-style: normal; font-variant-ligatures: normal; font-variant-caps: normal; font-weight: 400; letter-spacing: normal; orphans: 2; text-align: center; text-indent: 0px; text-transform: none; widows: 2; word-spacing: 0px; -webkit-text-stroke-width: 0px; background-color: rgb(251, 251, 251); text-decoration-thickness: initial; text-decoration-style: initial; text-decoration-color: initial;&quot;&gt;&lt;sub&gt;3&lt;/sub&gt;&lt;/span&gt;&lt;br&gt;&lt;br&gt;" style="ellipse;whiteSpace=wrap;html=1;aspect=fixed;" parent="1" vertex="1">
          <mxGeometry x="590" y="995" width="10" height="10" as="geometry" />
        </mxCell>
        <mxCell id="VyrQGjFrnwsROVNn3HrQ-21" value="" style="endArrow=none;html=1;rounded=0;" parent="1" source="VyrQGjFrnwsROVNn3HrQ-17" target="VyrQGjFrnwsROVNn3HrQ-20" edge="1">
          <mxGeometry width="50" height="50" relative="1" as="geometry">
            <mxPoint x="500" y="1030" as="sourcePoint" />
            <mxPoint x="550" y="980" as="targetPoint" />
          </mxGeometry>
        </mxCell>
        <mxCell id="VyrQGjFrnwsROVNn3HrQ-22" value="f" style="ellipse;whiteSpace=wrap;html=1;aspect=fixed;fillColor=#dae8fc;strokeColor=#6c8ebf;" parent="1" vertex="1">
          <mxGeometry x="700" y="860" width="40" height="40" as="geometry" />
        </mxCell>
        <mxCell id="VyrQGjFrnwsROVNn3HrQ-23" style="rounded=0;orthogonalLoop=1;jettySize=auto;html=1;endArrow=none;endFill=0;" parent="1" source="VyrQGjFrnwsROVNn3HrQ-24" target="VyrQGjFrnwsROVNn3HrQ-22" edge="1">
          <mxGeometry relative="1" as="geometry">
            <mxPoint x="680" y="867.5" as="targetPoint" />
            <mxPoint x="670" y="892.4999999999998" as="sourcePoint" />
          </mxGeometry>
        </mxCell>
        <mxCell id="VyrQGjFrnwsROVNn3HrQ-24" value="&lt;span style=&quot;color: rgb(0, 0, 0); font-family: Helvetica; font-size: 12px; font-style: normal; font-variant-ligatures: normal; font-variant-caps: normal; font-weight: 400; letter-spacing: normal; orphans: 2; text-align: center; text-indent: 0px; text-transform: none; widows: 2; word-spacing: 0px; -webkit-text-stroke-width: 0px; background-color: rgb(251, 251, 251); text-decoration-thickness: initial; text-decoration-style: initial; text-decoration-color: initial; float: none; display: inline !important;&quot;&gt;z&lt;/span&gt;&lt;sup style=&quot;border-color: var(--border-color); color: rgb(0, 0, 0); font-family: Helvetica; font-style: normal; font-variant-ligatures: normal; font-variant-caps: normal; font-weight: 400; letter-spacing: normal; orphans: 2; text-align: center; text-indent: 0px; text-transform: none; widows: 2; word-spacing: 0px; -webkit-text-stroke-width: 0px; background-color: rgb(251, 251, 251); text-decoration-thickness: initial; text-decoration-style: initial; text-decoration-color: initial;&quot;&gt;(2)&lt;/sup&gt;&lt;sub style=&quot;border-color: var(--border-color); color: rgb(0, 0, 0); font-family: Helvetica; font-style: normal; font-variant-ligatures: normal; font-variant-caps: normal; font-weight: 400; letter-spacing: normal; orphans: 2; text-align: center; text-indent: 0px; text-transform: none; widows: 2; word-spacing: 0px; -webkit-text-stroke-width: 0px; background-color: rgb(251, 251, 251); text-decoration-thickness: initial; text-decoration-style: initial; text-decoration-color: initial;&quot;&gt;1&lt;/sub&gt;&lt;br&gt;&lt;br&gt;" style="ellipse;whiteSpace=wrap;html=1;aspect=fixed;" parent="1" vertex="1">
          <mxGeometry x="680" y="875" width="10" height="10" as="geometry" />
        </mxCell>
        <mxCell id="VyrQGjFrnwsROVNn3HrQ-44" style="rounded=0;orthogonalLoop=1;jettySize=auto;html=1;endArrow=none;endFill=0;" parent="1" source="VyrQGjFrnwsROVNn3HrQ-25" target="VyrQGjFrnwsROVNn3HrQ-41" edge="1">
          <mxGeometry relative="1" as="geometry" />
        </mxCell>
        <mxCell id="VyrQGjFrnwsROVNn3HrQ-25" value="&lt;span style=&quot;color: rgb(0, 0, 0); font-family: Helvetica; font-size: 12px; font-style: normal; font-variant-ligatures: normal; font-variant-caps: normal; font-weight: 400; letter-spacing: normal; orphans: 2; text-align: center; text-indent: 0px; text-transform: none; widows: 2; word-spacing: 0px; -webkit-text-stroke-width: 0px; background-color: rgb(251, 251, 251); text-decoration-thickness: initial; text-decoration-style: initial; text-decoration-color: initial; float: none; display: inline !important;&quot;&gt;y&lt;/span&gt;&lt;sup style=&quot;border-color: var(--border-color); color: rgb(0, 0, 0); font-family: Helvetica; font-style: normal; font-variant-ligatures: normal; font-variant-caps: normal; font-weight: 400; letter-spacing: normal; orphans: 2; text-align: center; text-indent: 0px; text-transform: none; widows: 2; word-spacing: 0px; -webkit-text-stroke-width: 0px; background-color: rgb(251, 251, 251); text-decoration-thickness: initial; text-decoration-style: initial; text-decoration-color: initial;&quot;&gt;(2)&lt;/sup&gt;&lt;sub style=&quot;border-color: var(--border-color); color: rgb(0, 0, 0); font-family: Helvetica; font-style: normal; font-variant-ligatures: normal; font-variant-caps: normal; font-weight: 400; letter-spacing: normal; orphans: 2; text-align: center; text-indent: 0px; text-transform: none; widows: 2; word-spacing: 0px; -webkit-text-stroke-width: 0px; background-color: rgb(251, 251, 251); text-decoration-thickness: initial; text-decoration-style: initial; text-decoration-color: initial;&quot;&gt;1&lt;/sub&gt;&lt;br&gt;&lt;br&gt;" style="ellipse;whiteSpace=wrap;html=1;aspect=fixed;" parent="1" vertex="1">
          <mxGeometry x="750" y="875" width="10" height="10" as="geometry" />
        </mxCell>
        <mxCell id="VyrQGjFrnwsROVNn3HrQ-26" value="" style="endArrow=none;html=1;rounded=0;" parent="1" source="VyrQGjFrnwsROVNn3HrQ-22" target="VyrQGjFrnwsROVNn3HrQ-25" edge="1">
          <mxGeometry width="50" height="50" relative="1" as="geometry">
            <mxPoint x="660" y="910" as="sourcePoint" />
            <mxPoint x="710" y="860" as="targetPoint" />
          </mxGeometry>
        </mxCell>
        <mxCell id="VyrQGjFrnwsROVNn3HrQ-27" value="f" style="ellipse;whiteSpace=wrap;html=1;aspect=fixed;fillColor=#dae8fc;strokeColor=#6c8ebf;" parent="1" vertex="1">
          <mxGeometry x="700" y="940" width="40" height="40" as="geometry" />
        </mxCell>
        <mxCell id="VyrQGjFrnwsROVNn3HrQ-28" style="rounded=0;orthogonalLoop=1;jettySize=auto;html=1;endArrow=none;endFill=0;" parent="1" source="VyrQGjFrnwsROVNn3HrQ-29" target="VyrQGjFrnwsROVNn3HrQ-27" edge="1">
          <mxGeometry relative="1" as="geometry">
            <mxPoint x="680" y="947.5" as="targetPoint" />
            <mxPoint x="670" y="972.4999999999998" as="sourcePoint" />
          </mxGeometry>
        </mxCell>
        <mxCell id="VyrQGjFrnwsROVNn3HrQ-29" value="&lt;span style=&quot;color: rgb(0, 0, 0); font-family: Helvetica; font-size: 12px; font-style: normal; font-variant-ligatures: normal; font-variant-caps: normal; font-weight: 400; letter-spacing: normal; orphans: 2; text-align: center; text-indent: 0px; text-transform: none; widows: 2; word-spacing: 0px; -webkit-text-stroke-width: 0px; background-color: rgb(251, 251, 251); text-decoration-thickness: initial; text-decoration-style: initial; text-decoration-color: initial; float: none; display: inline !important;&quot;&gt;z&lt;/span&gt;&lt;sup style=&quot;border-color: var(--border-color); color: rgb(0, 0, 0); font-family: Helvetica; font-style: normal; font-variant-ligatures: normal; font-variant-caps: normal; font-weight: 400; letter-spacing: normal; orphans: 2; text-align: center; text-indent: 0px; text-transform: none; widows: 2; word-spacing: 0px; -webkit-text-stroke-width: 0px; background-color: rgb(251, 251, 251); text-decoration-thickness: initial; text-decoration-style: initial; text-decoration-color: initial;&quot;&gt;(2)&lt;/sup&gt;&lt;span style=&quot;border-color: var(--border-color); color: rgb(0, 0, 0); font-family: Helvetica; font-style: normal; font-variant-ligatures: normal; font-variant-caps: normal; font-weight: 400; letter-spacing: normal; orphans: 2; text-align: center; text-indent: 0px; text-transform: none; widows: 2; word-spacing: 0px; -webkit-text-stroke-width: 0px; background-color: rgb(251, 251, 251); text-decoration-thickness: initial; text-decoration-style: initial; text-decoration-color: initial;&quot;&gt;&lt;sub&gt;2&lt;/sub&gt;&lt;/span&gt;&lt;br&gt;&lt;br&gt;" style="ellipse;whiteSpace=wrap;html=1;aspect=fixed;" parent="1" vertex="1">
          <mxGeometry x="680" y="955" width="10" height="10" as="geometry" />
        </mxCell>
        <mxCell id="VyrQGjFrnwsROVNn3HrQ-45" style="rounded=0;orthogonalLoop=1;jettySize=auto;html=1;endArrow=none;endFill=0;" parent="1" source="VyrQGjFrnwsROVNn3HrQ-30" target="VyrQGjFrnwsROVNn3HrQ-41" edge="1">
          <mxGeometry relative="1" as="geometry" />
        </mxCell>
        <mxCell id="VyrQGjFrnwsROVNn3HrQ-30" value="&lt;span style=&quot;color: rgb(0, 0, 0); font-family: Helvetica; font-size: 12px; font-style: normal; font-variant-ligatures: normal; font-variant-caps: normal; font-weight: 400; letter-spacing: normal; orphans: 2; text-align: center; text-indent: 0px; text-transform: none; widows: 2; word-spacing: 0px; -webkit-text-stroke-width: 0px; background-color: rgb(251, 251, 251); text-decoration-thickness: initial; text-decoration-style: initial; text-decoration-color: initial; float: none; display: inline !important;&quot;&gt;y&lt;/span&gt;&lt;sup style=&quot;border-color: var(--border-color); color: rgb(0, 0, 0); font-family: Helvetica; font-style: normal; font-variant-ligatures: normal; font-variant-caps: normal; font-weight: 400; letter-spacing: normal; orphans: 2; text-align: center; text-indent: 0px; text-transform: none; widows: 2; word-spacing: 0px; -webkit-text-stroke-width: 0px; background-color: rgb(251, 251, 251); text-decoration-thickness: initial; text-decoration-style: initial; text-decoration-color: initial;&quot;&gt;(2)&lt;/sup&gt;&lt;span style=&quot;border-color: var(--border-color); color: rgb(0, 0, 0); font-family: Helvetica; font-style: normal; font-variant-ligatures: normal; font-variant-caps: normal; font-weight: 400; letter-spacing: normal; orphans: 2; text-align: center; text-indent: 0px; text-transform: none; widows: 2; word-spacing: 0px; -webkit-text-stroke-width: 0px; background-color: rgb(251, 251, 251); text-decoration-thickness: initial; text-decoration-style: initial; text-decoration-color: initial;&quot;&gt;&lt;sub&gt;2&lt;br&gt;&lt;/sub&gt;&lt;/span&gt;&lt;br&gt;" style="ellipse;whiteSpace=wrap;html=1;aspect=fixed;" parent="1" vertex="1">
          <mxGeometry x="750" y="955" width="10" height="10" as="geometry" />
        </mxCell>
        <mxCell id="VyrQGjFrnwsROVNn3HrQ-31" value="" style="endArrow=none;html=1;rounded=0;" parent="1" source="VyrQGjFrnwsROVNn3HrQ-27" target="VyrQGjFrnwsROVNn3HrQ-30" edge="1">
          <mxGeometry width="50" height="50" relative="1" as="geometry">
            <mxPoint x="660" y="990" as="sourcePoint" />
            <mxPoint x="710" y="940" as="targetPoint" />
          </mxGeometry>
        </mxCell>
        <mxCell id="VyrQGjFrnwsROVNn3HrQ-39" value="f" style="ellipse;whiteSpace=wrap;html=1;aspect=fixed;fillColor=#dae8fc;strokeColor=#6c8ebf;" parent="1" vertex="1">
          <mxGeometry x="860" y="900" width="40" height="40" as="geometry" />
        </mxCell>
        <mxCell id="VyrQGjFrnwsROVNn3HrQ-40" style="rounded=0;orthogonalLoop=1;jettySize=auto;html=1;endArrow=none;endFill=0;" parent="1" source="VyrQGjFrnwsROVNn3HrQ-41" target="VyrQGjFrnwsROVNn3HrQ-39" edge="1">
          <mxGeometry relative="1" as="geometry">
            <mxPoint x="840" y="907.5" as="targetPoint" />
            <mxPoint x="830" y="932.4999999999998" as="sourcePoint" />
          </mxGeometry>
        </mxCell>
        <mxCell id="VyrQGjFrnwsROVNn3HrQ-41" value="&lt;span style=&quot;color: rgb(0, 0, 0); font-family: Helvetica; font-size: 12px; font-style: normal; font-variant-ligatures: normal; font-variant-caps: normal; font-weight: 400; letter-spacing: normal; orphans: 2; text-align: center; text-indent: 0px; text-transform: none; widows: 2; word-spacing: 0px; -webkit-text-stroke-width: 0px; background-color: rgb(251, 251, 251); text-decoration-thickness: initial; text-decoration-style: initial; text-decoration-color: initial; float: none; display: inline !important;&quot;&gt;z&lt;/span&gt;&lt;sup style=&quot;border-color: var(--border-color); color: rgb(0, 0, 0); font-family: Helvetica; font-style: normal; font-variant-ligatures: normal; font-variant-caps: normal; font-weight: 400; letter-spacing: normal; orphans: 2; text-align: center; text-indent: 0px; text-transform: none; widows: 2; word-spacing: 0px; -webkit-text-stroke-width: 0px; background-color: rgb(251, 251, 251); text-decoration-thickness: initial; text-decoration-style: initial; text-decoration-color: initial;&quot;&gt;(3)&lt;/sup&gt;&lt;sub style=&quot;border-color: var(--border-color); color: rgb(0, 0, 0); font-family: Helvetica; font-style: normal; font-variant-ligatures: normal; font-variant-caps: normal; font-weight: 400; letter-spacing: normal; orphans: 2; text-align: center; text-indent: 0px; text-transform: none; widows: 2; word-spacing: 0px; -webkit-text-stroke-width: 0px; background-color: rgb(251, 251, 251); text-decoration-thickness: initial; text-decoration-style: initial; text-decoration-color: initial;&quot;&gt;1&lt;/sub&gt;&lt;br&gt;&lt;br&gt;" style="ellipse;whiteSpace=wrap;html=1;aspect=fixed;" parent="1" vertex="1">
          <mxGeometry x="840" y="915" width="10" height="10" as="geometry" />
        </mxCell>
        <mxCell id="VyrQGjFrnwsROVNn3HrQ-42" value="&lt;span style=&quot;color: rgb(0, 0, 0); font-family: Helvetica; font-size: 12px; font-style: normal; font-variant-ligatures: normal; font-variant-caps: normal; font-weight: 400; letter-spacing: normal; orphans: 2; text-align: center; text-indent: 0px; text-transform: none; widows: 2; word-spacing: 0px; -webkit-text-stroke-width: 0px; background-color: rgb(251, 251, 251); text-decoration-thickness: initial; text-decoration-style: initial; text-decoration-color: initial; float: none; display: inline !important;&quot;&gt;y&lt;/span&gt;&lt;sup style=&quot;border-color: var(--border-color); color: rgb(0, 0, 0); font-family: Helvetica; font-style: normal; font-variant-ligatures: normal; font-variant-caps: normal; font-weight: 400; letter-spacing: normal; orphans: 2; text-align: center; text-indent: 0px; text-transform: none; widows: 2; word-spacing: 0px; -webkit-text-stroke-width: 0px; background-color: rgb(251, 251, 251); text-decoration-thickness: initial; text-decoration-style: initial; text-decoration-color: initial;&quot;&gt;(3)&lt;/sup&gt;&lt;sub style=&quot;border-color: var(--border-color); color: rgb(0, 0, 0); font-family: Helvetica; font-style: normal; font-variant-ligatures: normal; font-variant-caps: normal; font-weight: 400; letter-spacing: normal; orphans: 2; text-align: center; text-indent: 0px; text-transform: none; widows: 2; word-spacing: 0px; -webkit-text-stroke-width: 0px; background-color: rgb(251, 251, 251); text-decoration-thickness: initial; text-decoration-style: initial; text-decoration-color: initial;&quot;&gt;1&lt;/sub&gt;&lt;br&gt;&lt;br&gt;" style="ellipse;whiteSpace=wrap;html=1;aspect=fixed;" parent="1" vertex="1">
          <mxGeometry x="910" y="915" width="10" height="10" as="geometry" />
        </mxCell>
        <mxCell id="VyrQGjFrnwsROVNn3HrQ-43" value="" style="endArrow=none;html=1;rounded=0;" parent="1" source="VyrQGjFrnwsROVNn3HrQ-39" target="VyrQGjFrnwsROVNn3HrQ-42" edge="1">
          <mxGeometry width="50" height="50" relative="1" as="geometry">
            <mxPoint x="820" y="950" as="sourcePoint" />
            <mxPoint x="870" y="900" as="targetPoint" />
          </mxGeometry>
        </mxCell>
        <mxCell id="VyrQGjFrnwsROVNn3HrQ-48" value="register" style="rounded=0;whiteSpace=wrap;html=1;rotation=-90;fillColor=#ffe6cc;strokeColor=#d79b00;gradientColor=none;opacity=50;" parent="1" vertex="1">
          <mxGeometry x="510" y="910" width="240" height="20" as="geometry" />
        </mxCell>
        <mxCell id="VyrQGjFrnwsROVNn3HrQ-50" style="edgeStyle=orthogonalEdgeStyle;rounded=0;orthogonalLoop=1;jettySize=auto;html=1;endArrow=none;endFill=0;" parent="1" source="VyrQGjFrnwsROVNn3HrQ-49" target="VyrQGjFrnwsROVNn3HrQ-7" edge="1">
          <mxGeometry relative="1" as="geometry" />
        </mxCell>
        <mxCell id="VyrQGjFrnwsROVNn3HrQ-55" style="rounded=0;orthogonalLoop=1;jettySize=auto;html=1;endArrow=none;endFill=0;" parent="1" source="VyrQGjFrnwsROVNn3HrQ-49" target="VyrQGjFrnwsROVNn3HrQ-14" edge="1">
          <mxGeometry relative="1" as="geometry" />
        </mxCell>
        <mxCell id="VyrQGjFrnwsROVNn3HrQ-60" style="rounded=0;orthogonalLoop=1;jettySize=auto;html=1;endArrow=none;endFill=0;" parent="1" source="VyrQGjFrnwsROVNn3HrQ-49" target="VyrQGjFrnwsROVNn3HrQ-19" edge="1">
          <mxGeometry relative="1" as="geometry" />
        </mxCell>
        <mxCell id="VyrQGjFrnwsROVNn3HrQ-49" value="x&lt;sub&gt;1&lt;br&gt;&lt;/sub&gt;" style="ellipse;whiteSpace=wrap;html=1;aspect=fixed;fillColor=#647687;fontColor=#ffffff;strokeColor=#314354;" parent="1" vertex="1">
          <mxGeometry x="430" y="830" width="20" height="20" as="geometry" />
        </mxCell>
        <mxCell id="VyrQGjFrnwsROVNn3HrQ-54" style="edgeStyle=orthogonalEdgeStyle;rounded=0;orthogonalLoop=1;jettySize=auto;html=1;endArrow=none;endFill=0;" parent="1" source="VyrQGjFrnwsROVNn3HrQ-51" target="VyrQGjFrnwsROVNn3HrQ-14" edge="1">
          <mxGeometry relative="1" as="geometry" />
        </mxCell>
        <mxCell id="VyrQGjFrnwsROVNn3HrQ-57" style="rounded=0;orthogonalLoop=1;jettySize=auto;html=1;endArrow=none;endFill=0;" parent="1" source="VyrQGjFrnwsROVNn3HrQ-51" target="VyrQGjFrnwsROVNn3HrQ-19" edge="1">
          <mxGeometry relative="1" as="geometry" />
        </mxCell>
        <mxCell id="VyrQGjFrnwsROVNn3HrQ-58" style="rounded=0;orthogonalLoop=1;jettySize=auto;html=1;endArrow=none;endFill=0;" parent="1" source="VyrQGjFrnwsROVNn3HrQ-51" target="VyrQGjFrnwsROVNn3HrQ-7" edge="1">
          <mxGeometry relative="1" as="geometry" />
        </mxCell>
        <mxCell id="VyrQGjFrnwsROVNn3HrQ-51" value="x&lt;sub&gt;2&lt;/sub&gt;" style="ellipse;whiteSpace=wrap;html=1;aspect=fixed;fillColor=#647687;fontColor=#ffffff;strokeColor=#314354;" parent="1" vertex="1">
          <mxGeometry x="430" y="910" width="20" height="20" as="geometry" />
        </mxCell>
        <mxCell id="VyrQGjFrnwsROVNn3HrQ-53" style="edgeStyle=orthogonalEdgeStyle;rounded=0;orthogonalLoop=1;jettySize=auto;html=1;endArrow=none;endFill=0;" parent="1" source="VyrQGjFrnwsROVNn3HrQ-52" target="VyrQGjFrnwsROVNn3HrQ-19" edge="1">
          <mxGeometry relative="1" as="geometry" />
        </mxCell>
        <mxCell id="VyrQGjFrnwsROVNn3HrQ-56" style="rounded=0;orthogonalLoop=1;jettySize=auto;html=1;endArrow=none;endFill=0;" parent="1" source="VyrQGjFrnwsROVNn3HrQ-52" target="VyrQGjFrnwsROVNn3HrQ-7" edge="1">
          <mxGeometry relative="1" as="geometry" />
        </mxCell>
        <mxCell id="VyrQGjFrnwsROVNn3HrQ-59" style="rounded=0;orthogonalLoop=1;jettySize=auto;html=1;endArrow=none;endFill=0;" parent="1" source="VyrQGjFrnwsROVNn3HrQ-52" target="VyrQGjFrnwsROVNn3HrQ-14" edge="1">
          <mxGeometry relative="1" as="geometry" />
        </mxCell>
        <mxCell id="VyrQGjFrnwsROVNn3HrQ-52" value="x&lt;sub&gt;3&lt;/sub&gt;" style="ellipse;whiteSpace=wrap;html=1;aspect=fixed;fillColor=#647687;fontColor=#ffffff;strokeColor=#314354;" parent="1" vertex="1">
          <mxGeometry x="430" y="990" width="20" height="20" as="geometry" />
        </mxCell>
        <mxCell id="VyrQGjFrnwsROVNn3HrQ-61" value="" style="endArrow=classic;html=1;rounded=0;" parent="1" target="VyrQGjFrnwsROVNn3HrQ-49" edge="1">
          <mxGeometry width="50" height="50" relative="1" as="geometry">
            <mxPoint x="360" y="840" as="sourcePoint" />
            <mxPoint x="420" y="820" as="targetPoint" />
          </mxGeometry>
        </mxCell>
        <mxCell id="VyrQGjFrnwsROVNn3HrQ-62" value="" style="endArrow=classic;html=1;rounded=0;" parent="1" edge="1">
          <mxGeometry width="50" height="50" relative="1" as="geometry">
            <mxPoint x="360" y="920" as="sourcePoint" />
            <mxPoint x="430" y="920" as="targetPoint" />
          </mxGeometry>
        </mxCell>
        <mxCell id="VyrQGjFrnwsROVNn3HrQ-63" value="" style="endArrow=classic;html=1;rounded=0;" parent="1" edge="1">
          <mxGeometry width="50" height="50" relative="1" as="geometry">
            <mxPoint x="360" y="1000" as="sourcePoint" />
            <mxPoint x="430" y="1000" as="targetPoint" />
          </mxGeometry>
        </mxCell>
        <mxCell id="VyrQGjFrnwsROVNn3HrQ-64" value="register" style="rounded=0;whiteSpace=wrap;html=1;rotation=-90;fillColor=#ffe6cc;strokeColor=#d79b00;" parent="1" vertex="1">
          <mxGeometry x="670" y="910" width="240" height="20" as="geometry" />
        </mxCell>
        <mxCell id="VyrQGjFrnwsROVNn3HrQ-66" value="" style="endArrow=classic;html=1;rounded=0;" parent="1" edge="1">
          <mxGeometry width="50" height="50" relative="1" as="geometry">
            <mxPoint x="920" y="920" as="sourcePoint" />
            <mxPoint x="1000" y="920" as="targetPoint" />
          </mxGeometry>
        </mxCell>
        <mxCell id="VyrQGjFrnwsROVNn3HrQ-65" value="register" style="rounded=0;whiteSpace=wrap;html=1;rotation=-90;fillColor=#ffe6cc;strokeColor=#d79b00;" parent="1" vertex="1">
          <mxGeometry x="830" y="910" width="240" height="20" as="geometry" />
        </mxCell>
        <mxCell id="VyrQGjFrnwsROVNn3HrQ-68" value="w&lt;sup&gt;(2)&lt;/sup&gt;&lt;sub&gt;11&lt;/sub&gt;" style="text;html=1;strokeColor=none;fillColor=none;align=center;verticalAlign=middle;whiteSpace=wrap;rounded=0;" parent="1" vertex="1">
          <mxGeometry x="620" y="830" width="60" height="30" as="geometry" />
        </mxCell>
        <mxCell id="VyrQGjFrnwsROVNn3HrQ-69" value="w&lt;sup&gt;(2)&lt;/sup&gt;&lt;sub&gt;22&lt;/sub&gt;" style="text;html=1;strokeColor=none;fillColor=none;align=center;verticalAlign=middle;whiteSpace=wrap;rounded=0;" parent="1" vertex="1">
          <mxGeometry x="620" y="950" width="60" height="30" as="geometry" />
        </mxCell>
        <mxCell id="VyrQGjFrnwsROVNn3HrQ-70" value="w&lt;sup&gt;(2)&lt;/sup&gt;&lt;sub&gt;31&lt;/sub&gt;" style="text;html=1;strokeColor=none;fillColor=none;align=center;verticalAlign=middle;whiteSpace=wrap;rounded=0;" parent="1" vertex="1">
          <mxGeometry x="620" y="890" width="60" height="30" as="geometry" />
        </mxCell>
        <mxCell id="VyrQGjFrnwsROVNn3HrQ-72" value="w&lt;sup&gt;(2)&lt;/sup&gt;&lt;sub&gt;32&lt;/sub&gt;" style="text;html=1;strokeColor=none;fillColor=none;align=center;verticalAlign=middle;whiteSpace=wrap;rounded=0;" parent="1" vertex="1">
          <mxGeometry x="620" y="980" width="60" height="30" as="geometry" />
        </mxCell>
        <mxCell id="VyrQGjFrnwsROVNn3HrQ-73" value="w&lt;sup style=&quot;border-color: var(--border-color);&quot;&gt;(2)&lt;/sup&gt;&lt;sub style=&quot;border-color: var(--border-color);&quot;&gt;21&lt;/sub&gt;" style="text;html=1;strokeColor=none;fillColor=none;align=center;verticalAlign=middle;whiteSpace=wrap;rounded=0;" parent="1" vertex="1">
          <mxGeometry x="620" y="860" width="60" height="30" as="geometry" />
        </mxCell>
        <mxCell id="VyrQGjFrnwsROVNn3HrQ-74" value="w&lt;sup&gt;(2)&lt;/sup&gt;&lt;sub&gt;12&lt;/sub&gt;" style="text;html=1;strokeColor=none;fillColor=none;align=center;verticalAlign=middle;whiteSpace=wrap;rounded=0;" parent="1" vertex="1">
          <mxGeometry x="620" y="920" width="60" height="30" as="geometry" />
        </mxCell>
        <mxCell id="VyrQGjFrnwsROVNn3HrQ-77" value="" style="rounded=0;whiteSpace=wrap;html=1;fillColor=#fff2cc;strokeColor=#d6b656;opacity=50;" parent="1" vertex="1">
          <mxGeometry x="640" y="800" width="140" height="240" as="geometry" />
        </mxCell>
        <mxCell id="VyrQGjFrnwsROVNn3HrQ-78" value="" style="rounded=0;whiteSpace=wrap;html=1;fillColor=#fff2cc;strokeColor=#d6b656;opacity=50;" parent="1" vertex="1">
          <mxGeometry x="480" y="800" width="140" height="240" as="geometry" />
        </mxCell>
        <mxCell id="VyrQGjFrnwsROVNn3HrQ-79" value="" style="rounded=0;whiteSpace=wrap;html=1;fillColor=#fff2cc;strokeColor=#d6b656;opacity=50;" parent="1" vertex="1">
          <mxGeometry x="800" y="800" width="140" height="240" as="geometry" />
        </mxCell>
      </root>
    </mxGraphModel>
  </diagram>
</mxfile>
